<svg width="24" height="25" viewBox="0 0 24 25" fill="none" xmlns="http://www.w3.org/2000/svg">
<g clip-path="url(#clip0)">
<path d="M19.9144 23.4789C21.7553 23.4789 23.2477 21.9865 23.2477 20.1456C23.2477 18.3046 21.7553 16.8123 19.9144 16.8123C18.0734 16.8123 16.5811 18.3046 16.5811 20.1456C16.5811 21.9865 18.0734 23.4789 19.9144 23.4789Z" stroke="#A1A1A1" stroke-linecap="round" stroke-linejoin="round"/>
<path d="M19.9144 18.8123V21.4789" stroke="#A1A1A1" stroke-linecap="round" stroke-linejoin="round"/>
<path d="M18.5811 20.1455H21.2477" stroke="#A1A1A1" stroke-linecap="round" stroke-linejoin="round"/>
</g>
<path d="M13.75 7.8333L6.25 3.5083" stroke="#A1A1A1" stroke-width="2" stroke-linecap="round" stroke-linejoin="round"/>
<path d="M17.5 13.3334V6.66675C17.4997 6.37448 17.4225 6.08742 17.2763 5.83438C17.13 5.58134 16.9198 5.37122 16.6667 5.22508L10.8333 1.89175C10.58 1.74547 10.2926 1.66846 10 1.66846C9.70744 1.66846 9.42003 1.74547 9.16667 1.89175L3.33333 5.22508C3.08022 5.37122 2.86998 5.58134 2.72372 5.83438C2.57745 6.08742 2.5003 6.37448 2.5 6.66675V13.3334C2.5003 13.6257 2.57745 13.9127 2.72372 14.1658C2.86998 14.4188 3.08022 14.6289 3.33333 14.7751L9.16667 18.1084C9.42003 18.2547 9.70744 18.3317 10 18.3317C10.2926 18.3317 10.58 18.2547 10.8333 18.1084L16.6667 14.7751C16.9198 14.6289 17.13 14.4188 17.2763 14.1658C17.4225 13.9127 17.4997 13.6257 17.5 13.3334Z" stroke="#A1A1A1" stroke-width="2" stroke-linecap="round" stroke-linejoin="round"/>
<path d="M2.72498 5.80005L9.99997 10.0084L17.275 5.80005" stroke="#A1A1A1" stroke-width="2" stroke-linecap="round" stroke-linejoin="round"/>
<path d="M10 18.4V10" stroke="#A1A1A1" stroke-width="2" stroke-linecap="round" stroke-linejoin="round"/>
<defs>
<clipPath id="clip0">
<rect width="8" height="8" fill="white" transform="translate(15.9144 16.1455)"/>
</clipPath>
</defs>
</svg>
