<svg width="22" height="20" viewBox="0 0 22 20" fill="none" xmlns="http://www.w3.org/2000/svg">
<path d="M9.83827 12C8.29965 12 8.29965 12 9.83827 12ZM9.83827 12C8.29965 12 14.3352 12 13.4284 12H14L6.41915 12C5.51234 12 4.64266 12.4214 4.00145 13.1716C3.36023 13.9217 3 14.9391 3 16V18" stroke="#A1A1A1" stroke-width="2" stroke-linecap="round" stroke-linejoin="round"/>
<path d="M9.99996 9.16667C11.8409 9.16667 13.3333 7.67428 13.3333 5.83333C13.3333 3.99238 11.8409 2.5 9.99996 2.5C8.15901 2.5 6.66663 3.99238 6.66663 5.83333C6.66663 7.67428 8.15901 9.16667 9.99996 9.16667Z" stroke="#A1A1A1" stroke-width="2" stroke-linecap="round" stroke-linejoin="round"/>
<path d="M18 19.3334C19.8409 19.3334 21.3333 17.841 21.3333 16.0001C21.3333 14.1591 19.8409 12.6667 18 12.6667C16.159 12.6667 14.6666 14.1591 14.6666 16.0001C14.6666 17.841 16.159 19.3334 18 19.3334Z" stroke="#A1A1A1" stroke-linecap="round" stroke-linejoin="round"/>
<path d="M18 14.6667V17.3334" stroke="#A1A1A1" stroke-linecap="round" stroke-linejoin="round"/>
<path d="M16.6666 16H19.3333" stroke="#A1A1A1" stroke-linecap="round" stroke-linejoin="round"/>
</svg>
