<svg width="32" height="32" viewBox="0 0 32 32" fill="none" xmlns="http://www.w3.org/2000/svg">
<path d="M12.8813 26.2937C12.0463 26.2937 12.1962 25.9725 11.8964 25.1803L9.45557 17.1297L24.6146 7.66602L26.3918 8.13706L24.9144 12.1623L12.8813 26.2937Z" fill="#989898"/>
<path d="M12.8818 26.2937C13.5242 26.2937 13.8025 25.9939 14.1665 25.6514C14.7232 25.1161 21.8745 18.1575 21.8745 18.1575L17.4852 17.0869L13.4171 19.6562L12.8818 26.0796V26.2937Z" fill="#BEBDBD"/>
<path d="M13.3099 19.7419L23.6729 27.3857C24.8505 28.028 25.707 27.7068 26.0067 26.2937L30.2247 6.42419C30.6529 4.68989 29.561 3.91909 28.4262 4.43295L3.67494 13.9823C1.98346 14.6675 2.00487 15.6096 3.37518 16.0164L9.73428 18.0076L24.4437 8.73658C25.1289 8.30836 25.7712 8.54389 25.2573 9.01493L13.3099 19.7419Z" fill="#A1A1A1"/>
</svg>
