<svg width="24" height="24" viewBox="0 0 24 24" fill="none" xmlns="http://www.w3.org/2000/svg">
<g clip-path="url(#clip0)">
<path d="M19.8083 20.8926C20.3606 20.8926 20.8083 20.4449 20.8083 19.8926C20.8083 19.3403 20.3606 18.8926 19.8083 18.8926C19.2561 18.8926 18.8083 19.3403 18.8083 19.8926C18.8083 20.4449 19.2561 20.8926 19.8083 20.8926Z" stroke="#A1A1A1" stroke-width="0.5" stroke-linecap="round" stroke-linejoin="round"/>
<path d="M22.2751 20.8925C22.2307 20.993 22.2174 21.1046 22.2371 21.2127C22.2567 21.3208 22.3082 21.4206 22.3851 21.4992L22.4051 21.5192C22.467 21.5811 22.5162 21.6546 22.5498 21.7355C22.5833 21.8165 22.6006 21.9032 22.6006 21.9908C22.6006 22.0784 22.5833 22.1652 22.5498 22.2461C22.5162 22.3271 22.467 22.4006 22.4051 22.4625C22.3431 22.5245 22.2696 22.5737 22.1887 22.6072C22.1078 22.6408 22.021 22.658 21.9334 22.658C21.8458 22.658 21.759 22.6408 21.6781 22.6072C21.5972 22.5737 21.5236 22.5245 21.4617 22.4625L21.4417 22.4425C21.3632 22.3657 21.2634 22.3141 21.1553 22.2945C21.0471 22.2749 20.9356 22.2881 20.8351 22.3325C20.7365 22.3748 20.6524 22.4449 20.5932 22.5343C20.5339 22.6238 20.5022 22.7286 20.5017 22.8358V22.8925C20.5017 23.0693 20.4315 23.2389 20.3065 23.3639C20.1814 23.4889 20.0119 23.5592 19.8351 23.5592C19.6582 23.5592 19.4887 23.4889 19.3637 23.3639C19.2386 23.2389 19.1684 23.0693 19.1684 22.8925V22.8625C19.1658 22.7522 19.1301 22.6452 19.0659 22.5554C19.0017 22.4656 18.912 22.3973 18.8084 22.3592C18.7079 22.3148 18.5963 22.3016 18.4882 22.3212C18.3801 22.3408 18.2803 22.3923 18.2017 22.4692L18.1817 22.4892C18.1198 22.5511 18.0463 22.6003 17.9654 22.6339C17.8844 22.6674 17.7977 22.6847 17.7101 22.6847C17.6224 22.6847 17.5357 22.6674 17.4548 22.6339C17.3738 22.6003 17.3003 22.5511 17.2384 22.4892C17.1764 22.4272 17.1272 22.3537 17.0937 22.2728C17.0601 22.1919 17.0429 22.1051 17.0429 22.0175C17.0429 21.9299 17.0601 21.8431 17.0937 21.7622C17.1272 21.6813 17.1764 21.6077 17.2384 21.5458L17.2584 21.5258C17.3352 21.4473 17.3868 21.3475 17.4064 21.2394C17.426 21.1312 17.4128 21.0197 17.3684 20.9192C17.3261 20.8206 17.256 20.7365 17.1665 20.6773C17.0771 20.618 16.9723 20.5863 16.8651 20.5858H16.8084C16.6316 20.5858 16.462 20.5156 16.337 20.3906C16.212 20.2655 16.1417 20.096 16.1417 19.9192C16.1417 19.7424 16.212 19.5728 16.337 19.4478C16.462 19.3227 16.6316 19.2525 16.8084 19.2525H16.8384C16.9487 19.2499 17.0557 19.2142 17.1455 19.15C17.2353 19.0858 17.3036 18.9961 17.3417 18.8925C17.3861 18.792 17.3993 18.6804 17.3797 18.5723C17.3601 18.4642 17.3086 18.3644 17.2317 18.2858L17.2117 18.2658C17.1497 18.2039 17.1006 18.1304 17.067 18.0495C17.0335 17.9685 17.0162 17.8818 17.0162 17.7942C17.0162 17.7066 17.0335 17.6198 17.067 17.5389C17.1006 17.4579 17.1497 17.3844 17.2117 17.3225C17.2736 17.2605 17.3472 17.2113 17.4281 17.1778C17.509 17.1442 17.5958 17.127 17.6834 17.127C17.771 17.127 17.8578 17.1442 17.9387 17.1778C18.0196 17.2113 18.0931 17.2605 18.1551 17.3225L18.1751 17.3425C18.2536 17.4193 18.3534 17.4709 18.4615 17.4905C18.5697 17.5101 18.6812 17.4969 18.7817 17.4525H18.8084C18.907 17.4102 18.9911 17.3401 19.0503 17.2507C19.1095 17.1612 19.1413 17.0564 19.1417 16.9492V16.8925C19.1417 16.7157 19.212 16.5461 19.337 16.4211C19.462 16.2961 19.6316 16.2258 19.8084 16.2258C19.9852 16.2258 20.1548 16.2961 20.2798 16.4211C20.4048 16.5461 20.4751 16.7157 20.4751 16.8925V16.9225C20.4755 17.0298 20.5073 17.1346 20.5665 17.224C20.6257 17.3134 20.7098 17.3836 20.8084 17.4258C20.9089 17.4702 21.0205 17.4834 21.1286 17.4638C21.2367 17.4442 21.3365 17.3927 21.4151 17.3158L21.4351 17.2958C21.497 17.2338 21.5705 17.1847 21.6514 17.1511C21.7324 17.1176 21.8191 17.1003 21.9067 17.1003C21.9943 17.1003 22.0811 17.1176 22.162 17.1511C22.2429 17.1847 22.3165 17.2338 22.3784 17.2958C22.4404 17.3577 22.4895 17.4313 22.5231 17.5122C22.5566 17.5931 22.5739 17.6799 22.5739 17.7675C22.5739 17.8551 22.5566 17.9419 22.5231 18.0228C22.4895 18.1037 22.4404 18.1772 22.3784 18.2392L22.3584 18.2592C22.2815 18.3377 22.23 18.4375 22.2104 18.5456C22.1908 18.6538 22.204 18.7653 22.2484 18.8658V18.8925C22.2906 18.9911 22.3608 19.0752 22.4502 19.1344C22.5397 19.1936 22.6445 19.2254 22.7517 19.2258H22.8084C22.9852 19.2258 23.1548 19.2961 23.2798 19.4211C23.4048 19.5461 23.4751 19.7157 23.4751 19.8925C23.4751 20.0693 23.4048 20.2389 23.2798 20.3639C23.1548 20.4889 22.9852 20.5592 22.8084 20.5592H22.7784C22.6711 20.5596 22.5663 20.5914 22.4769 20.6506C22.3875 20.7098 22.3173 20.7939 22.2751 20.8925V20.8925Z" stroke="#A1A1A1" stroke-width="0.5" stroke-linecap="round" stroke-linejoin="round"/>
</g>
<path d="M13.75 7.8333L6.25 3.5083" stroke="#A1A1A1" stroke-width="2" stroke-linecap="round" stroke-linejoin="round"/>
<path d="M17.5 13.3333V6.66663C17.4997 6.37435 17.4225 6.0873 17.2763 5.83426C17.13 5.58122 16.9198 5.37109 16.6667 5.22496L10.8333 1.89163C10.58 1.74535 10.2926 1.66833 10 1.66833C9.70744 1.66833 9.42003 1.74535 9.16667 1.89163L3.33333 5.22496C3.08022 5.37109 2.86998 5.58122 2.72372 5.83426C2.57745 6.0873 2.5003 6.37435 2.5 6.66663V13.3333C2.5003 13.6256 2.57745 13.9126 2.72372 14.1657C2.86998 14.4187 3.08022 14.6288 3.33333 14.775L9.16667 18.1083C9.42003 18.2546 9.70744 18.3316 10 18.3316C10.2926 18.3316 10.58 18.2546 10.8333 18.1083L16.6667 14.775C16.9198 14.6288 17.13 14.4187 17.2763 14.1657C17.4225 13.9126 17.4997 13.6256 17.5 13.3333Z" stroke="#A1A1A1" stroke-width="2" stroke-linecap="round" stroke-linejoin="round"/>
<path d="M2.72498 5.80005L9.99998 10.0084L17.275 5.80005" stroke="#A1A1A1" stroke-width="2" stroke-linecap="round" stroke-linejoin="round"/>
<path d="M10 18.4V10" stroke="#A1A1A1" stroke-width="2" stroke-linecap="round" stroke-linejoin="round"/>
<defs>
<clipPath id="clip0">
<rect width="8" height="8" fill="white" transform="translate(15.8083 15.8926)"/>
</clipPath>
</defs>
</svg>
