<svg width="22" height="20" viewBox="0 0 22 20" fill="none" xmlns="http://www.w3.org/2000/svg">
<path d="M9.83827 12C8.29965 12 8.29965 12 9.83827 12ZM9.83827 12C8.29965 12 14.3352 12 13.4284 12H14L6.41915 12C5.51234 12 4.64266 12.4214 4.00145 13.1716C3.36023 13.9217 3 14.9391 3 16V18" stroke="#A1A1A1" stroke-width="2" stroke-linecap="round" stroke-linejoin="round"/>
<path d="M9.99996 9.16667C11.8409 9.16667 13.3333 7.67428 13.3333 5.83333C13.3333 3.99238 11.8409 2.5 9.99996 2.5C8.15901 2.5 6.66663 3.99238 6.66663 5.83333C6.66663 7.67428 8.15901 9.16667 9.99996 9.16667Z" stroke="#A1A1A1" stroke-width="2" stroke-linecap="round" stroke-linejoin="round"/>
<path d="M17.9999 16.9999C18.5522 16.9999 18.9999 16.5522 18.9999 15.9999C18.9999 15.4477 18.5522 14.9999 17.9999 14.9999C17.4476 14.9999 16.9999 15.4477 16.9999 15.9999C16.9999 16.5522 17.4476 16.9999 17.9999 16.9999Z" stroke="#A1A1A1" stroke-width="0.5" stroke-linecap="round" stroke-linejoin="round"/>
<path d="M20.4667 17C20.4223 17.1005 20.4091 17.212 20.4287 17.3202C20.4483 17.4283 20.4999 17.5281 20.5767 17.6066L20.5967 17.6266C20.6587 17.6886 20.7079 17.7621 20.7414 17.843C20.775 17.924 20.7922 18.0107 20.7922 18.0983C20.7922 18.1859 20.775 18.2727 20.7414 18.3536C20.7079 18.4345 20.6587 18.5081 20.5967 18.57C20.5348 18.632 20.4613 18.6811 20.3803 18.7147C20.2994 18.7482 20.2127 18.7655 20.125 18.7655C20.0374 18.7655 19.9507 18.7482 19.8697 18.7147C19.7888 18.6811 19.7153 18.632 19.6534 18.57L19.6334 18.55C19.5548 18.4731 19.455 18.4216 19.3469 18.402C19.2388 18.3824 19.1272 18.3956 19.0267 18.44C18.9281 18.4822 18.844 18.5524 18.7848 18.6418C18.7256 18.7313 18.6938 18.8361 18.6934 18.9433V19C18.6934 19.1768 18.6231 19.3464 18.4981 19.4714C18.3731 19.5964 18.2035 19.6666 18.0267 19.6666C17.8499 19.6666 17.6803 19.5964 17.5553 19.4714C17.4303 19.3464 17.36 19.1768 17.36 19V18.97C17.3575 18.8596 17.3217 18.7526 17.2575 18.6629C17.1933 18.5731 17.1036 18.5047 17 18.4666C16.8995 18.4223 16.788 18.409 16.6798 18.4286C16.5717 18.4483 16.4719 18.4998 16.3934 18.5766L16.3734 18.5966C16.3115 18.6586 16.2379 18.7078 16.157 18.7414C16.0761 18.7749 15.9893 18.7922 15.9017 18.7922C15.8141 18.7922 15.7273 18.7749 15.6464 18.7414C15.5655 18.7078 15.492 18.6586 15.43 18.5966C15.3681 18.5347 15.3189 18.4612 15.2853 18.3803C15.2518 18.2993 15.2345 18.2126 15.2345 18.125C15.2345 18.0374 15.2518 17.9506 15.2853 17.8697C15.3189 17.7888 15.3681 17.7152 15.43 17.6533L15.45 17.6333C15.5269 17.5548 15.5784 17.455 15.598 17.3468C15.6176 17.2387 15.6044 17.1272 15.56 17.0266C15.5178 16.9281 15.4476 16.844 15.3582 16.7847C15.2688 16.7255 15.164 16.6937 15.0567 16.6933H15C14.8232 16.6933 14.6537 16.6231 14.5286 16.4981C14.4036 16.373 14.3334 16.2035 14.3334 16.0266C14.3334 15.8498 14.4036 15.6803 14.5286 15.5552C14.6537 15.4302 14.8232 15.36 15 15.36H15.03C15.1404 15.3574 15.2474 15.3217 15.3371 15.2575C15.4269 15.1933 15.4953 15.1036 15.5334 15C15.5777 14.8994 15.591 14.7879 15.5714 14.6798C15.5518 14.5717 15.5002 14.4719 15.4234 14.3933L15.4034 14.3733C15.3414 14.3114 15.2922 14.2379 15.2587 14.1569C15.2251 14.076 15.2078 13.9893 15.2078 13.9016C15.2078 13.814 15.2251 13.7273 15.2587 13.6464C15.2922 13.5654 15.3414 13.4919 15.4034 13.43C15.4653 13.368 15.5388 13.3188 15.6197 13.2853C15.7007 13.2517 15.7874 13.2345 15.875 13.2345C15.9627 13.2345 16.0494 13.2517 16.1303 13.2853C16.2113 13.3188 16.2848 13.368 16.3467 13.43L16.3667 13.45C16.4453 13.5268 16.545 13.5784 16.6532 13.598C16.7613 13.6176 16.8728 13.6044 16.9734 13.56H17C17.0986 13.5177 17.1827 13.4476 17.2419 13.3581C17.3012 13.2687 17.3329 13.1639 17.3334 13.0566V13C17.3334 12.8232 17.4036 12.6536 17.5286 12.5286C17.6537 12.4036 17.8232 12.3333 18 12.3333C18.1769 12.3333 18.3464 12.4036 18.4714 12.5286C18.5965 12.6536 18.6667 12.8232 18.6667 13V13.03C18.6671 13.1372 18.6989 13.242 18.7581 13.3315C18.8174 13.4209 18.9015 13.4911 19 13.5333C19.1006 13.5777 19.2121 13.5909 19.3202 13.5713C19.4284 13.5517 19.5281 13.5002 19.6067 13.4233L19.6267 13.4033C19.6886 13.3413 19.7621 13.2922 19.8431 13.2586C19.924 13.2251 20.0108 13.2078 20.0984 13.2078C20.186 13.2078 20.2727 13.2251 20.3537 13.2586C20.4346 13.2922 20.5081 13.3413 20.57 13.4033C20.632 13.4652 20.6812 13.5388 20.7147 13.6197C20.7483 13.7006 20.7656 13.7874 20.7656 13.875C20.7656 13.9626 20.7483 14.0493 20.7147 14.1303C20.6812 14.2112 20.632 14.2847 20.57 14.3466L20.55 14.3666C20.4732 14.4452 20.4216 14.545 20.402 14.6531C20.3824 14.7612 20.3957 14.8728 20.44 14.9733V15C20.4823 15.0986 20.5525 15.1827 20.6419 15.2419C20.7313 15.3011 20.8361 15.3329 20.9434 15.3333H21C21.1769 15.3333 21.3464 15.4036 21.4714 15.5286C21.5965 15.6536 21.6667 15.8232 21.6667 16C21.6667 16.1768 21.5965 16.3464 21.4714 16.4714C21.3464 16.5964 21.1769 16.6666 21 16.6666H20.97C20.8628 16.6671 20.758 16.6989 20.6686 16.7581C20.5791 16.8173 20.509 16.9014 20.4667 17V17Z" stroke="#A1A1A1" stroke-width="0.5" stroke-linecap="round" stroke-linejoin="round"/>
</svg>
