<svg width="60" height="62" viewBox="0 0 60 62" fill="none" xmlns="http://www.w3.org/2000/svg">
<rect x="0.902832" width="58.1806" height="62" rx="4" fill="#171717"/>
<path d="M42.6483 46V42.6667C42.6483 40.8986 41.9557 39.2029 40.7228 37.9526C39.49 36.7024 37.8178 36 36.0743 36H22.9261C21.1826 36 19.5104 36.7024 18.2776 37.9526C17.0447 39.2029 16.3521 40.8986 16.3521 42.6667V46" stroke="#A1A1A1" stroke-width="2" stroke-linecap="round" stroke-linejoin="round"/>
<path d="M29.4999 29.3333C33.1306 29.3333 36.0739 26.3486 36.0739 22.6667C36.0739 18.9848 33.1306 16 29.4999 16C25.8691 16 22.9258 18.9848 22.9258 22.6667C22.9258 26.3486 25.8691 29.3333 29.4999 29.3333Z" stroke="#A1A1A1" stroke-width="2" stroke-linecap="round" stroke-linejoin="round"/>
</svg>
