<svg width="24" height="25" viewBox="0 0 24 25" fill="none" xmlns="http://www.w3.org/2000/svg">
<g clip-path="url(#clip0)">
<path d="M19.8823 23.4477C21.7232 23.4477 23.2156 21.9553 23.2156 20.1143C23.2156 18.2734 21.7232 16.781 19.8823 16.781C18.0413 16.781 16.549 18.2734 16.549 20.1143C16.549 21.9553 18.0413 23.4477 19.8823 23.4477Z" stroke="#A1A1A1" stroke-linecap="round" stroke-linejoin="round"/>
<path d="M18.549 20.1143H21.2156" stroke="#A1A1A1" stroke-linecap="round" stroke-linejoin="round"/>
</g>
<path d="M13.75 7.8333L6.25 3.5083" stroke="#A1A1A1" stroke-width="2" stroke-linecap="round" stroke-linejoin="round"/>
<path d="M17.5 13.3333V6.66663C17.4997 6.37435 17.4225 6.0873 17.2763 5.83426C17.13 5.58122 16.9198 5.37109 16.6667 5.22496L10.8333 1.89163C10.58 1.74535 10.2926 1.66833 10 1.66833C9.70744 1.66833 9.42003 1.74535 9.16667 1.89163L3.33333 5.22496C3.08022 5.37109 2.86998 5.58122 2.72372 5.83426C2.57745 6.0873 2.5003 6.37435 2.5 6.66663V13.3333C2.5003 13.6256 2.57745 13.9126 2.72372 14.1657C2.86998 14.4187 3.08022 14.6288 3.33333 14.775L9.16667 18.1083C9.42003 18.2546 9.70744 18.3316 10 18.3316C10.2926 18.3316 10.58 18.2546 10.8333 18.1083L16.6667 14.775C16.9198 14.6288 17.13 14.4187 17.2763 14.1657C17.4225 13.9126 17.4997 13.6256 17.5 13.3333Z" stroke="#A1A1A1" stroke-width="2" stroke-linecap="round" stroke-linejoin="round"/>
<path d="M2.72498 5.80005L9.99997 10.0084L17.275 5.80005" stroke="#A1A1A1" stroke-width="2" stroke-linecap="round" stroke-linejoin="round"/>
<path d="M10 18.4V10" stroke="#A1A1A1" stroke-width="2" stroke-linecap="round" stroke-linejoin="round"/>
<defs>
<clipPath id="clip0">
<rect width="8" height="8" fill="white" transform="translate(15.8823 16.1143)"/>
</clipPath>
</defs>
</svg>
